<?xml version="1.0" encoding="UTF-8"?>
<svg id="Layer_1" xmlns="http://www.w3.org/2000/svg" version="1.1" viewBox="0 0 595.3 243">
  <!-- Generator: Adobe Illustrator 29.2.0, SVG Export Plug-In . SVG Version: 2.1.0 Build 108)  -->
  <defs>
    <style>
      .st0 {
        fill: #fff;
      }

      .st0, .st1 {
        fill-rule: evenodd;
      }
    </style>
  </defs>
  <path class="st1" d="M343.4,202.8c0,8.9-3.1,11.3-7.1,11.3s-7.1-2.4-7.1-11.3v-3.6c0-8.9,3.1-11.3,7.1-11.3s7.1,2.4,7.1,11.3v3.6ZM350.4,202.9v-3.7c0-12.6-5.4-17.4-14.1-17.4s-14.1,4.8-14.1,17.4v3.7c0,12.6,5.4,17.3,14.1,17.3s14.1-4.7,14.1-17.3ZM144.3,181.6h6.3c1.5,0,2.7,1.2,2.7,2.7v32.6c0,1.5-1.2,2.7-2.7,2.7h-6.3c-1.5,0-2.7-1.2-2.7-2.7v-32.6c0-1.5,1.2-2.7,2.7-2.7ZM259.3,182.2h24.2c.5,0,1,.4,1,1v3.9c0,.5-.4,1-1,1h-8.7v30.4c0,.6-.5,1.1-1.1,1.1h-4.5c-.6,0-1.1-.5-1.1-1.1v-30.4h-8.7c-.5,0-1-.4-1-1v-3.9c0-.5.4-1,1-1ZM195.1,213.7c-.6,1.4-.4,3.5-.2,5,4.3,2,14.6,1.7,18.5-1.1,4.6-3.3,5.6-10.6,1.2-15.4-3.7-4-17.7-8-13.3-13.2,2-2.3,12.1-1.4,14.9-1,.3-.9.6-4.3-.1-5.1-1.2-1.3-12-1.6-15.8-.5-6.2,1.7-8.9,9-4.8,14.6,3,4,11,6.6,13.9,9.9,2.2,2.6.7,6.3-2.8,6.8-3.2.5-9.6,0-11.4-.1ZM516.4,181.5c-4.9,0-5.8,2.3-6.9,6.7l-7.8,31.5c0,.2,0,.7.5.7h3.7c.3,0,.5-.2.6-.5l2.7-10.9h14.4l2.7,10.9c0,.3.3.5.6.5h3.7c.6,0,.6-.5.5-.7l-7.8-31.5c-1.1-4.4-2-6.7-6.9-6.7ZM510.1,205.2l3.7-16.4c.6-2.3,1.6-3.4,2.6-3.4,1,0,2,1.1,2.6,3.4l3.7,16.4h-12.5ZM397.8,185.9v14.6c0,0,7.1,0,7.1,0,4.4,0,8.1-1.5,8.1-7.5,0-2.1-.5-4.1-2.1-5.5-3-2.6-9.2-2.1-13.2-1.7ZM460.5,219.8v-37.2c0-.3.3-.6.6-.6h3.9c.2,0,.3,0,.4.2.1.1.2.3.2.4v37.2c0,.3-.4.6-.7.6h-3.8c-.2,0-.3,0-.4-.2-.1-.1-.2-.3-.2-.4ZM410.3,203.8l8.1,15.7c0,.2,0,.4,0,.6-.1.2-.3.3-.5.3h-3.9c-.2,0-.4-.1-.5-.3l-8.2-15.5h-7.5s0,15.2,0,15.2c0,.3-.3.6-.6.6h-3.8c-.3,0-.6-.2-.6-.5v-37c0-.3.3-.6.6-.6,6.6-.7,18.1-2.2,22.7,3.7,2.4,3,2.7,8.4,1.3,11.9-1.7,4.4-4.5,5.4-7,6.1ZM81.1,220.4h0s0,0,0,0h-.1c-8.2,0-8.9-6.3-10.5-12.6l-5.6-21c-.8-3.1.3-4.8,2.6-4.8h5.3c1.7,0,3.1.9,3.6,2.2l4.7,18.8,4.7-18.8c.5-1.4,1.9-2.3,3.6-2.3h5.3c2.3,0,3.4,1.7,2.6,4.8l-5.6,21c-1.6,6.4-2.4,12.5-10.5,12.6Z"/>
  <path class="st0" d="M493.1,64.9h-8.8c-3.1,0-5.4,1.4-8.3,4.7l-36.2,41.1c-2.6,3-2.4,6.1,0,9.2l36,46.6c2.7,3.4,5.2,4.7,8.3,4.7h8.8c5.4,0,7-3.6,3.9-7.8l-34.9-45.9c-1.2-1.6-1.2-2.8,0-4.4l35.1-40.5c3.4-4,1.5-7.8-3.9-7.8"/>
  <path class="st0" d="M525.4,64.9h-2.7c-3.1,0-5.4,1.4-8.3,4.7l-36.2,41.1c-2.6,3-2.4,6.1,0,9.2l36,46.6c2.7,3.4,5.2,4.7,8.3,4.7h2.7c5.4,0,7-3.6,3.9-7.8l-34.9-45.9c-1.2-1.6-1.2-2.8,0-4.4l35.1-40.5c3.4-4,1.5-7.8-3.9-7.8"/>
  <path class="st0" d="M456.8,64.9h-17.3c-3.1,0-5.4,1.4-8.3,4.7l-36.2,41.1c-2.6,3-2.4,6.1,0,9.2l36,46.6c2.7,3.4,5.2,4.7,8.3,4.7h17.3c5.4,0,7-3.6,3.9-7.8l-34.9-45.9c-1.2-1.6-1.2-2.8,0-4.4l35.1-40.5c3.4-4,1.5-7.8-3.9-7.8"/>
  <path class="st1" d="M336.8,26.6h13.6c5.6,0,10.1,4.6,10.1,10.1v55.1l20.2-21.2c2.6-2.7,6.4-5.7,9.5-5.7h15.4c8,0,12.4,6.4,7,12.5l-29.3,33.6c-1.6,2.5-1.9,5.3-.2,8l28.6,38c5.1,6.7,2.1,14.1-6.2,14.1h-18.2c-3.2,0-7.6-2.6-9.8-5.9l-16.9-25v20.7c0,5.6-4.5,10.1-10.1,10.1h-13.6c-5.6,0-10.1-4.6-10.1-10.1V36.8c0-5.6,4.5-10.1,10.1-10.1M280.6,173.3c-27.1-2.4-40.9-20.4-41.4-45.8-.1-6.1-.1-12,0-18.1.5-25.4,14.3-43.4,41.4-45.8,8-.7,19.9.3,27.1,2,7.1,1.7,9.1,5,9,10.2v9.9c0,4.9-2,7.6-5.8,8.8-3.6,1.2-18.3-1.4-27.5-.6-4.4.4-6.9,3-8.2,6.3-2.5,6.1-2.5,30.6,0,36.7,1.3,3.3,3.8,5.9,8.2,6.3,9.2.8,23.9-1.9,27.5-.6,3.8,1.3,5.7,4,5.7,8.8v9.9c0,5.2-1.9,8.5-9,10.2-7.3,1.7-19.1,2.7-27.1,2ZM203.9,26.3h16.8c4.7,0,8.6,3.9,8.6,8.6v11.6c0,4.7-3.9,8.6-8.6,8.6h-16.8c-4.7,0-8.6-3.9-8.6-8.6v-11.6c0-4.7,3.9-8.6,8.6-8.6ZM205.5,64.8h13.7c5.6,0,10.1,4.4,10.1,9.8v86.9c0,5.4-4.6,9.8-10.1,9.8h-13.7c-5.6,0-10.1-4.4-10.1-9.8v-86.9c0-5.4,4.6-9.8,10.1-9.8ZM162,26.6h13.8c5.6,0,10.2,4.6,10.2,10.1v124.3c0,5.6-4.6,10.1-10.2,10.1h-13.8c-5.6,0-10.2-4.6-10.2-10.1V36.8c0-5.6,4.6-10.1,10.2-10.1ZM105.6,173.3c-27.1-2.4-40.9-20.4-41.4-45.8-.1-6.1-.1-12,0-18.1.5-25.4,14.3-43.4,41.4-45.8,8-.7,19.9.3,27.1,2,7.1,1.7,9.1,5,9,10.2v9.9c0,4.9-2,7.6-5.8,8.8-3.6,1.2-18.3-1.4-27.5-.6-4.4.4-6.9,3-8.2,6.3-2.5,6.1-2.5,30.6,0,36.7,1.3,3.3,3.8,5.9,8.2,6.3,9.2.8,23.9-1.9,27.5-.6,3.8,1.3,5.7,4,5.7,8.8v9.9c0,5.2-1.9,8.5-9,10.2-7.3,1.7-19.1,2.7-27.1,2Z"/>
</svg>